<?xml version="1.0" encoding="UTF-8" standalone="no"?>
<svg
   xmlns:dc="http://purl.org/dc/elements/1.1/"
   xmlns:cc="http://creativecommons.org/ns#"
   xmlns:rdf="http://www.w3.org/1999/02/22-rdf-syntax-ns#"
   xmlns:svg="http://www.w3.org/2000/svg"
   xmlns="http://www.w3.org/2000/svg"
   version="1.1"
   id="svg5434"
   width="300"
   height="60.238674"
   viewBox="0 0 300 60.238675">
  <metadata
     id="metadata5450">
    <rdf:RDF>
      <cc:Work
         rdf:about="">
        <dc:format>image/svg+xml</dc:format>
        <dc:type
           rdf:resource="http://purl.org/dc/dcmitype/StillImage" />
        <dc:title></dc:title>
      </cc:Work>
    </rdf:RDF>
  </metadata>
  <defs
     id="defs5448" />
  <path
     id="path5436"
     fill="#1c1617"
     d="M27.75224 14.59174c.527063-1.698968 1.1130155-4.4550064-.48584-6.053862-.7743998-.7743996-1.8785818-1.2219614-3.4156032-1.2219614-3.7748302 0-6.3070877 1.8726927-6.946041 5.1351825-.7861776 4.0162782 3.1859332 5.9773055 7.473104 8.2092254 5.4649648 2.844373 11.574772 6.6044808 10.5118128 14.2041976-1.3662412 9.7285797-8.268115 13.1854056-20.844012 13.1854056-4.4667845 0-10.1879196-1.934527-11.627773-4.4873957-1.3309074-2.3732554-2.0434728-5.7034684-.691954-10.7149825l10.579536-.017667c-.588897 1.534077-1.1807387 5.7064128.194336 7.2287117.8774567.9746247 2.3673663 1.4516313 4.5521745 1.4516313 3.6835513 0 6.186364-1.9875276 6.8635955-5.453187.7478993-3.816053-3.34788-6.3188656-7.6056058-8.6980098-5.429631-3.03282-11.507049-6.2099197-10.046584-13.6535788C7.9240752 5.231221 14.2841636.9999953 25.6999336.9999953c5.5974667 0 9.275129 1.2455173 11.2420452 3.5834387 1.8520813 2.1995307 2.1612522 5.5474106.9540132 9.9935836L27.75224 14.59174M83.57084 47.12211l3.9161656-21.6331342c.297393-1.619467.4770066-3.4185476-.4210614-4.4962292-.532952-.6330644-1.3574078-.94518-2.5263685-.94518-3.3596578 0-4.2871707 2.5617024-4.7877333 5.3265742L75.7561757 47.12211H66.94922l5.6887457-31.3646585h8.7686775l-.795011 3.3920472.6418978-.023556c2.0788067-2.5204794 5.1410715-3.9514993 8.851123-3.9514993 2.5381465 0 4.687621.830345 5.8978044 2.2760872.9481243 1.139516 1.28674 2.6294255.983458 4.313671L92.377796 47.12211H83.57084M109.40281 38.28571l.4357838-.0147224 9.395853-22.5135354h8.4065058l-20.7792335 43.481216h-9.2986848l5.6563565-11.5541608-3.3802693-31.9270552h8.806956L109.40281 38.28571z" />
  <path
     id="path5438"
     fill="#e6002d"
     d="M171.93132 11.6502h-.709621l-15.414381 35.2425458h-9.0160143L144.415104 11.6502h-.6772317l-6.2570315 35.2425458h-9.1131823l8.0472786-45.065349h15.4644374l1.899193 31.0996547h.624231l13.3767972-31.0996548h14.9785972l-8.0472786 45.065349h-9.063126L171.93132 11.6502z" />
  <path
     id="path5440"
     fill="#9fa0a0"
     d="M197.51006 43.85962l-.515285.0471118c-2.2113085 2.626481-4.9231795 3.8749428-8.633231 3.8749428-2.5381466 0-4.687621-.8274004-5.8978044-2.2790317-.9481243-1.1365715-1.2896846-2.6294256-.9864026-4.3107268l4.5875083-25.434465h8.9011793l-4.0133336 21.8392484c-.2885596 1.5752996-.4622842 3.324324.406339 4.3666718.5300074.6360088 1.3691857.9422353 2.5646468.9422353 3.3596578 0 4.2753928-2.4969236 4.7671218-5.1970167l3.942666-21.9511387h8.9070683l-4.6434535 25.31963c-.3503938 1.9256934-.594786 4.216503-.6948986 6.0450285h-9.1514607l.4593397-3.2624898M229.65501 24.53791c.789122-1.7019126.4534508-3.5657718-.1855026-4.2047252-.606564-.6948985-1.5664662-.7920665-2.5145905-.7920665-2.2171976 0-3.730663 1.3426853-4.154669 3.6806067-.4269504 2.334977 2.3202545 3.5746053 5.5002987 5.0115142 4.4314505 2.0051945 9.457687 4.2753928 8.4094503 10.058362-1.03057 5.676968-6.7163712 9.4900765-14.1453078 9.4900765-5.4855763 0-8.6361757-.898068-10.220309-2.912096-1.3132404-1.6665787-1.584133-4.1340575-.753788-7.570272h8.765733c-.394561 1.219017-.750844 2.7972612-.3121155 3.857276.497618 1.189572 1.486965 1.7490242 3.4509368 1.7490242 1.8697483 0 3.9573884-1.098293 4.3990612-3.5510495.600675-3.2889902-2.6853707-4.7347325-6.1598634-6.2688094-4.2547814-1.8726926-8.6479536-3.810164-7.679218-9.1809054 1.4722428-8.1032238 11.6130505-8.7303992 14.6812043-8.7303992 4.0722233 0 7.1933778 1.1365714 8.7922334 3.2006557 1.230795 1.5900222 1.5811886 3.6305506.9245684 6.162808H229.65501M255.82324 2.05766l-1.3191295 7.1227102h-8.857012l1.3691857-7.1227102h8.8069558zm-2.4733677 13.7006906l-5.641634 31.3646584h-8.789289l5.5768554-31.3646584h8.8540676zM273.8164 26.65441c.6477868-2.334977.4711177-4.343116-.376894-5.361908-.5977307-.71551-1.528188-1.0541257-2.9209296-1.0541257-4.4020057 0-5.3354076 3.9014432-6.489646 10.264476-1.280851 7.0520427-1.3338518 9.8905266-.1972804 11.2479343.5565077.6683982 1.3986306.9657913 2.7207045.9657913 3.8425535 0 5.768247-4.4285062 5.8330256-6.9519302h8.795178c-.9422353 7.467215-6.539702 12.016445-15.6646623 12.016445-4.5963418 0-7.6703845-1.0040696-9.3929085-3.0681538-2.385033-2.856151-2.134752-7.49666-1.0276254-13.5917446 1.5252435-8.4035614 3.9338325-15.947333 16.456729-15.947333 4.6993986 0 7.9942778 1.0894596 9.790414 3.244823 1.5988555 1.91686 2.1318073 4.5668968 1.4663536 8.2357256H273.8164" />
  <path
     id="path5442"
     fill="#1c1617"
     d="M38.76961 31.1215c1.5252434-8.4035613 3.9338325-15.947333 16.456729-15.947333 4.6257865 0 7.7204406 1.018792 9.475354 3.11821 2.4586452 2.9444855 1.978694 7.8529427 1.0953485 12.7172326-1.9757497 10.8798735-5.2058502 16.7717888-16.6068977 16.7717888-4.5963417 0-7.6703844-1.0040695-9.3929084-3.0681538-2.3850332-2.8561508-2.134752-7.4966598-1.0276254-13.5917446m18.2793654-.5064515c.8097334-4.4667843 1.28674-7.7498856-.029445-9.3222408-.5918415-.709621-1.51641-1.0541257-2.8296504-1.0541257-4.399061 0-5.332463 3.901443-6.4896458 10.264476-1.2779066 7.0520426-1.327963 9.8905265-.194336 11.2479343.5565077.6683982 1.3986305.9657912 2.7207045.9657912 3.7601078 0 5.0380145-2.2613648 6.8223727-12.101835" />
  <path
     id="path5444"
     fill="#9fa0a0"
     d="M286.99062 42.0841h-2.4174225v-.6948986h5.659301V42.0841h-2.420367v5.0144586h-.8215115V42.0841zM292.18351 41.97487h-.0147224v5.1234046h-.824456v-5.7093572h1.3132405l2.5145907 5.0144586 2.517535-5.0144586h1.310296v5.7093572h-.8215114V41.97487h-.017667l-2.5528688 5.1234046h-.8686232L292.18351 41.97487z" />
</svg>
